<svg width="374" height="109" viewBox="0 0 374 109" fill="none" xmlns="http://www.w3.org/2000/svg">
<path d="M86.4161 0L84.1382 23.9019H101.364V41.2851L82.5722 41.2851L80.152 67.215H97.8053V84.743H79.1554L76.8776 108.355L59.2242 108.355L61.6444 84.743H35.1644L33.0289 108.355H15.3755L17.6534 84.743H0L0 67.215H18.6499L21.0701 41.2851H3.84388L3.84388 23.9019L22.6362 23.9019L24.7717 0L42.425 0L40.2895 23.9019L66.6272 23.9019L68.7627 0L86.4161 0ZM38.8659 41.2851L36.1609 67.215H62.4986L65.2036 41.2851H38.8659Z" fill="#212121"/>
<circle cx="139.813" cy="54.1776" r="54.1776" fill="#007FFF"/>
<circle cx="228.944" cy="54.1776" r="54.1776" fill="#08B778"/>
<circle cx="319.822" cy="54.1776" r="54.1776" fill="#FF4D4D"/>
</svg>
