<svg width="82" height="85" viewBox="0 0 82 85" fill="none" xmlns="http://www.w3.org/2000/svg">
<circle cx="60.1055" cy="21.8946" r="21.8946" fill="#007FFF"/>
<path d="M39.0461 0.278931L38.0683 10.4305L45.4626 10.4305V17.8134H37.3961L36.3572 28.8263H43.9348L43.9348 36.2708H35.9295L34.9517 46.2993L27.3741 46.2993L28.4129 36.2708H17.0465L16.1299 46.2993H8.55225L9.53001 36.2708H1.95239L1.95239 28.8263H9.95778L10.9966 17.8134H3.60236L3.60236 10.4305L11.6689 10.4305L12.5855 0.278931L20.1631 0.278931L19.2465 10.4305L30.5518 10.4305L31.4684 0.278931L39.0461 0.278931ZM18.6354 17.8134L17.4743 28.8263L28.7796 28.8263L29.9407 17.8134H18.6354Z" fill="#212121"/>
<circle cx="21.8946" cy="62.8944" r="21.8946" fill="#FF4D4D"/>
<circle cx="60.1055" cy="62.8944" r="21.8946" fill="#08B778"/>
</svg>
